<svg xmlns="http://www.w3.org/2000/svg" width="512" height="512" viewBox="0 0 384 384"><path d="M248.172 193.102 190.5 296.91l38.75-102.332.59-1.566ZM203.148 199.98l-.117.942L190.5 296.91l-12.54-95.988-.12-.942h12.66M151.738 194.578 190.5 296.91l-57.68-103.808 18.328-.09ZM131.922 193.55l.437.9-31.91-5.438-10.46-25.5 29.57 5.36.242.038 12.11 24.64M164.82 169.469l12.47 31.543-25.212-6.563M216.172 169.469l12.738 24.98-25.21 6.563M291 163.512l-10.46 25.5-31.911 5.437.441-.898h.008l12.113-24.64.239-.04M234.82 108l26.278 59.05-44.188.06v-.008l5.86-59.211h12.05M164.078 167.102 190.5 107.89l26.41 59.21v.008h-.738l-25.672.04-25.68-.04h-.742" style="stroke:none;fill-rule:nonzero;fill:#ff496c;fill-opacity:1"/><path d="M164.078 167.102v.007l-44.187-.058L146.17 108v-.11h12.048" style="stroke:none;fill-rule:nonzero;fill:#ff496c;fill-opacity:1"/><path d="m248.629 194.45 31.91-5.438L190.5 296.91l57.672-103.812.898.453M229.25 194.578 190.5 296.91l12.531-95.988.668.09 25.211-6.563M177.96 200.922l12.54 95.988-38.762-102.332.34-.129 25.211 6.563M132.82 193.102 190.5 296.91l-90.05-107.898 31.91 5.437-.438-.898" style="stroke:none;fill-rule:nonzero;fill:#fd405f;fill-opacity:1"/><path d="M164.078 167.11h.742v2.359l-12.742 24.98-.34.13-.59-1.567-18.328.09-.898.449h-.012l-12.11-24.64-.241-.04.332-1.82M203.148 199.98H177.84l.12.942-.67.086-12.47-31.54v-2.359l25.68.04 25.672-.04v2.36l-12.473 31.539-.668-.086" style="stroke:none;fill-rule:nonzero;fill:#fd405f;fill-opacity:1"/><path d="m261.102 167.05.328 1.821-.239.04-12.113 24.64h-.008l-.898-.45-18.332-.09-.59 1.567-.34-.129-12.738-24.98v-2.36h.738" style="stroke:none;fill-rule:nonzero;fill:#fd405f;fill-opacity:1"/><path d="m242.59 107.89 49.86 52.09-1.45 3.532-29.57 5.36-.328-1.821L234.82 108v-.11M222.77 107.89l-5.86 59.212-26.41-59.211M190.5 107.89l-26.422 59.212-5.86-59.211M146.172 107.89v.11l-26.281 59.05-.332 1.821-29.57-5.36-1.45-3.53 49.86-52.09" style="stroke:none;fill-rule:nonzero;fill:#fd405f;fill-opacity:1"/><path d="M384 192c0 25.102-4.82 49.078-13.578 71.05l-.043-.019-28.55 5.68-17.849-26.64c5.91-15.56 9.141-32.442 9.141-50.071 0-73.309-55.89-133.559-127.39-140.46l.019-.212 19.309-26.058L210.46.879C307.84 10.16 384 92.19 384 192" style="stroke:none;fill-rule:nonzero;fill:#96efff;fill-opacity:1"/><path d="m337.91 279.191 27.91-5.55C335.14 338.859 268.84 384 192 384c-77.059 0-143.512-45.39-174.078-110.902l.039-.02 15.45-24.68 31.628 5.293h.012C87.93 300.72 136.18 333.121 192 333.121c56.422 0 105.11-33.113 127.691-80.96l.168.077" style="stroke:none;fill-rule:nonzero;fill:#6ce0f9;fill-opacity:1"/><path d="M194.77 50.879v.031q-1.376-.03-2.77-.031c-77.937 0-141.121 63.18-141.121 141.121 0 18.23 3.46 35.64 9.75 51.64l-.168.07-31.992-5.35-15.11 24.128C4.73 240.672 0 216.891 0 192 0 85.96 85.96 0 192 0c2.32 0 4.621.04 6.922.121l14.95 24.988" style="stroke:none;fill-rule:nonzero;fill:#40daf4;fill-opacity:1"/></svg>